# xmcd
#
# Track frame offsets:
# 150
# 17796
# 36061
# 50015
# 67217
# 84407
# 99589
# 117329
# 134471
# 153065
# 171440
# 187122
# 205905
# 225887
#
# Disc length: 3259 seconds
#
#
# Revision: 0
# Processed by: cddbd v1.5.1PL2 Copyright (c) Steve Scherf et al.
# Submitted via: FreeRIP 2.945 
#
DISCID=bd0cb90e
DTITLE=Laura Pausini.Entre Tú Y Mil Mares - Entre Tú Y Mil Mares
DYEAR=1900
DGENRE=Romantica
TTITLE0=Somos hoy
TTITLE1=Quiero decirte que te amo
TTITLE2=Error de los grandes
TTITLE3=Entre tú y mil mares
TTITLE4=Meta de mi viaje
TTITLE5=Musica sera
TTITLE6=Si no me quieres hoy
TTITLE7=Fiate de mi
TTITLE8=Recuerdame
TTITLE9=Vivre
TTITLE10=Mientrs la noche va
TTITLE11=Como se hara
TTITLE12=Jenny
TTITLE13=Extra mile
EXTD=
EXTT0=
EXTT1=
EXTT2=
EXTT3=
EXTT4=
EXTT5=
EXTT6=
EXTT7=
EXTT8=
EXTT9=
EXTT10=
EXTT11=
EXTT12=
EXTT13=
PLAYORDER=
